<svg xmlns="http://www.w3.org/2000/svg" width="122" height="24" viewBox="0 0 122 24">
    <g fill="none" fill-rule="evenodd">
        <g fill="#FFF">
            <g>
                <path d="M4.148.01c.984 0 1.86.204 2.633.613.927.484 1.512 1.188 1.755 2.112.037.149.019.288-.056.419-.081.13-.196.214-.346.251-.149.044-.289.025-.42-.056-.13-.074-.214-.186-.252-.335-.168-.645-.603-1.135-1.307-1.47-.584-.285-1.254-.428-2.007-.428-.815 0-1.516.26-2.1.782-.585.52-.897 1.16-.934 1.916-.025.534.162 1.008.56 1.424.542.577 1.404.875 2.586.893h.056c1.494.025 2.62.44 3.38 1.247.61.639.893 1.383.85 2.232-.044 1.049-.467 1.936-1.27 2.662-.797.725-1.752 1.088-2.867 1.088-.983 0-1.86-.201-2.632-.605-.928-.49-1.512-1.197-1.755-2.121-.038-.143-.019-.282.056-.418.08-.13.196-.215.345-.252.143-.037.283-.018.42.056.131.08.215.192.252.335.168.645.604 1.138 1.307 1.48.586.279 1.254.418 2.007.418.816 0 1.516-.26 2.101-.782.585-.52.896-1.156.934-1.907.024-.54-.162-1.017-.56-1.432-.542-.577-1.404-.875-2.586-.894H4.24c-1.493-.018-2.62-.43-3.379-1.237-.61-.645-.896-1.393-.859-2.242.05-1.049.476-1.936 1.28-2.661C2.078.372 3.033.009 4.147.009zM16.798 12.802c0 .155-.053.288-.158.4-.113.105-.243.158-.392.158-.156 0-.29-.053-.402-.158-.106-.112-.159-.245-.159-.4V.605c0-.28.137-.456.411-.53.268-.075.476.009.626.25l5.564 9.165L27.852.326c.15-.242.357-.326.625-.252.274.075.41.252.41.53v12.198c0 .155-.055.288-.167.4-.106.105-.237.158-.392.158-.15 0-.28-.053-.392-.158-.106-.112-.16-.245-.16-.4V2.596l-5.012 8.252-.01.01v.009c-.012.012-.024.027-.037.046l-.037.038-.038.037c-.018.012-.034.024-.046.037-.032.018-.038.022-.019.01.006-.007-.003-.004-.028.008-.019.013-.037.022-.056.029-.013.006-.028.012-.047.018-.018.006-.037.01-.055.01-.013.006-.029.008-.047.008-.019.007-.037.01-.056.01-.019 0-.038-.003-.056-.01-.02 0-.035-.002-.047-.009-.019 0-.037-.003-.056-.009-.019-.006-.034-.012-.047-.018-.018-.007-.037-.016-.056-.029h-.019c0-.006-.002-.009-.009-.009.019.013.013.01-.018-.01-.013-.012-.029-.024-.047-.036l-.037-.037-.038-.038c-.012-.019-.025-.034-.037-.046v-.01l-.01-.009-5.013-8.252v10.206zM44.385 9.127l-2.95-7.09-2.95 7.09h5.9zm-8.243 4.187c-.143-.056-.243-.155-.299-.298-.062-.143-.062-.286 0-.428l1.298-3.117v-.01L40.92.373l.047-.102.038-.038c.018-.024.031-.04.037-.046.006-.006.022-.019.047-.037.031-.025.043-.034.037-.028.062-.043.128-.071.196-.084h.047l.065-.01c.007 0 .025.004.056.01h.047c.075.013.143.04.205.084l.038.028c.024.025.04.037.047.037l.037.046c.024.032.037.044.037.038.019.037.034.071.047.102l3.78 9.09v.009l1.298 3.117c.063.142.063.285 0 .428-.056.143-.155.242-.298.298-.069.03-.14.046-.215.046-.25 0-.42-.114-.514-.344l-1.157-2.773h-6.815l-1.158 2.773c-.093.23-.264.344-.513.344h-.112l-.103-.046zM61.246 3.628c0-.688-.274-1.274-.822-1.758-.548-.49-1.208-.735-1.98-.735h-3.668v4.977h3.734c.76-.012 1.404-.26 1.933-.744.535-.483.803-1.064.803-1.74zM58.445.037c1.076 0 1.998.35 2.764 1.051.759.701 1.138 1.548 1.138 2.54 0 .881-.31 1.656-.933 2.326-.61.664-1.379 1.067-2.306 1.21l2.66 5.405c.069.137.078.276.029.419-.05.143-.144.248-.28.316-.075.038-.156.056-.243.056-.23 0-.395-.102-.495-.307L57.894 7.22h-3.118v5.498c0 .149-.056.28-.168.39-.106.107-.237.16-.392.16-.15 0-.28-.053-.392-.16-.106-.11-.16-.241-.16-.39V.586c0-.155.054-.285.16-.39.112-.106.242-.16.392-.16h4.229zM72.374 1.126h-3.688c-.156 0-.289-.053-.401-.158-.106-.106-.159-.236-.159-.391 0-.155.053-.286.159-.39.112-.113.245-.169.401-.169h8.486c.156 0 .287.056.393.168.112.105.168.236.168.39 0 .156-.056.286-.168.392-.106.105-.237.158-.393.158h-3.687v11.676c0 .155-.053.288-.159.4-.112.106-.246.158-.401.158-.15 0-.28-.052-.392-.158-.106-.112-.159-.245-.159-.4V1.126zM89.888 0c1.519 0 2.878.459 4.08 1.377.124.099.196.223.215.372.024.155-.013.295-.113.419-.093.124-.217.195-.373.214-.15.018-.286-.019-.41-.112-1.003-.769-2.135-1.154-3.399-1.154-1.538 0-2.85.546-3.94 1.638-1.089 1.085-1.634 2.394-1.634 3.926s.545 2.84 1.634 3.926c1.09 1.086 2.402 1.628 3.94 1.628 1.414 0 2.644-.461 3.688-1.383V6.903h-4.687c-.156 0-.29-.052-.402-.158-.111-.112-.167-.245-.167-.4 0-.155.056-.285.167-.39.113-.112.246-.168.402-.168h5.246c.156 0 .29.056.402.167.106.106.16.236.16.391v6.457c0 .155-.054.285-.16.39-.112.112-.246.168-.402.168-.155 0-.289-.056-.4-.167-.107-.106-.16-.236-.16-.391l.001-.532c-1.089.727-2.318 1.09-3.688 1.09-1.848 0-3.426-.654-4.733-1.963-1.313-1.302-1.97-2.875-1.97-4.717 0-1.842.657-3.418 1.97-4.726C86.462.65 88.04 0 89.888 0zM103.173 12.802c0 .155-.056.285-.168.39-.106.112-.237.168-.393.168-.155 0-.286-.056-.392-.167-.112-.106-.168-.236-.168-.391V.614c0-.155.056-.285.168-.39.106-.113.237-.168.392-.168.156 0 .287.055.393.167.112.106.168.236.168.391v12.188zM116.7 0c1.519 0 2.879.459 4.08 1.377.124.099.196.223.215.372.025.155-.013.295-.112.419-.094.124-.218.195-.374.214-.149.018-.286-.019-.41-.112-1.003-.769-2.135-1.154-3.399-1.154-1.537 0-2.85.546-3.94 1.638-1.089 1.085-1.633 2.394-1.633 3.926s.544 2.84 1.634 3.926c1.089 1.086 2.402 1.628 3.94 1.628 1.414 0 2.643-.461 3.687-1.383V6.903H115.7c-.156 0-.29-.052-.401-.158-.112-.112-.168-.245-.168-.4 0-.155.056-.285.168-.39.112-.112.245-.168.401-.168h5.247c.155 0 .29.056.402.167.105.106.158.236.158.391v6.457c0 .155-.053.285-.158.39-.113.112-.247.168-.402.168-.155 0-.29-.056-.401-.167-.106-.106-.16-.236-.16-.391l.002-.532c-1.09.727-2.319 1.09-3.689 1.09-1.848 0-3.426-.654-4.733-1.963-1.313-1.302-1.97-2.875-1.97-4.717 0-1.842.657-3.418 1.97-4.726C113.274.65 114.852 0 116.7 0zM115.063 17.601c-.128-.233-.381-.29-.564-.126l-.005-.008c-5.57 4.988-11.273 6.515-16.951 4.541-4.247-1.476-6.89-4.471-6.916-4.501l-.01.015c-.138-.157-.343-.188-.5-.047-.183.164-.228.485-.099.719.018.032.043.053.065.078l-.01.016c.072.083 4.955 5.56 12.29 5.56 3.683 0 7.985-1.381 12.606-5.52l-.004-.009c.182-.164.227-.485.098-.718" transform="translate(-40 -24) translate(40 24)"/>
            </g>
        </g>
    </g>
</svg>
